<?xml version="1.0" encoding="UTF-8" standalone="no"?>
<!-- Created with Inkscape (http://www.inkscape.org/) -->

<svg
   width="120"
   height="120"
   viewBox="0 0 31.75 31.75"
   version="1.1"
   id="svg5"
   sodipodi:docname="heximo_plain2.svg"
   inkscape:version="1.1 (c68e22c387, 2021-05-23)"
   xmlns:inkscape="http://www.inkscape.org/namespaces/inkscape"
   xmlns:sodipodi="http://sodipodi.sourceforge.net/DTD/sodipodi-0.dtd"
   xmlns="http://www.w3.org/2000/svg"
   xmlns:svg="http://www.w3.org/2000/svg">
  <sodipodi:namedview
     id="namedview10"
     pagecolor="#ffffff"
     bordercolor="#666666"
     borderopacity="1.0"
     inkscape:pageshadow="2"
     inkscape:pageopacity="0.0"
     inkscape:pagecheckerboard="0"
     showgrid="false"
     inkscape:zoom="3.8627566"
     inkscape:cx="48.281582"
     inkscape:cy="52.553143"
     inkscape:window-width="1920"
     inkscape:window-height="1011"
     inkscape:window-x="0"
     inkscape:window-y="32"
     inkscape:window-maximized="1"
     inkscape:current-layer="layer1" />
  <defs
     id="defs2">
    <inkscape:path-effect
       effect="spiro"
       id="path-effect728"
       is_visible="true"
       lpeversion="1" />
    <inkscape:path-effect
       effect="spiro"
       id="path-effect724"
       is_visible="true"
       lpeversion="1" />
    <inkscape:path-effect
       effect="spiro"
       id="path-effect720"
       is_visible="true"
       lpeversion="1" />
    <inkscape:path-effect
       effect="spiro"
       id="path-effect716"
       is_visible="true"
       lpeversion="1" />
    <inkscape:path-effect
       effect="spiro"
       id="path-effect712"
       is_visible="true"
       lpeversion="1" />
  </defs>
  <g
     id="layer1">
    <rect
       style="font-variation-settings:normal;opacity:1;vector-effect:none;fill:#d2e5cc;fill-opacity:1;fill-rule:evenodd;stroke:none;stop-color:#000000;stop-opacity:1"
       id="rect26154"
       width="32"
       height="32"
       x="0"
       y="0"
       ry="0.15345621" />
    <path
       style="fill:#989cd7;stroke:#000000;stroke-width:0.5px;stroke-linecap:butt;stroke-linejoin:miter;stroke-opacity:1"
       d="M 4.1046741,3.4941242 C 4.8263718,2.5036408 5.2100779,2.0778121 6.4651693,0.70691804 7.4172958,1.9883434 8.2057077,2.8919458 8.7563169,3.7567518 9.4729588,4.9108 9.72253,5.3036737 10.535105,6.9629294 c -1.2742869,0.056608 -1.7164104,0.031571 -2.9332164,0.081782 0.05114,1.2684354 0.092283,2.1564524 0.140841,3.8558476 0.079621,1.478243 0.062848,2.053907 0.1658274,4.989881 -0.021723,2.345148 0.031895,10.042296 0.1714249,12.90828 -1.2241135,8.36e-4 -2.0858149,-0.0032 -3.4135548,0.01771 C 4.538848,26.052317 4.5226257,17.908445 4.4673624,15.770261 4.4395418,13.889537 4.4705477,12.524033 4.4261507,10.423743 4.4017717,9.6103398 4.4258387,8.2850544 4.4085532,7.1057129 3.4356136,7.1147118 3.09527,7.0304505 1.6741728,6.9356931 2.7680191,5.1626066 3.2803946,4.6133628 4.1046741,3.4941242 Z"
       id="path584"
       sodipodi:nodetypes="cccccccccccccc" />
    <path
       style="fill:#cd8282;stroke:#000000;stroke-width:0.5px;stroke-linecap:butt;stroke-linejoin:miter;stroke-opacity:1"
       d="m 26.641009,27.173526 c -0.731058,0.983594 -1.118785,1.405765 -2.386823,2.764694 -0.93993,-1.290398 -1.719736,-2.201437 -2.262119,-3.071427 -0.705664,-1.160793 -0.951498,-1.556016 -1.7483,-3.222903 1.274767,-0.04452 1.716632,-0.01529 2.93386,-0.05396 -0.03911,-1.268863 -0.07182,-2.15723 -0.104265,-3.857009 -0.0656,-1.478932 -0.04337,-2.054411 -0.118495,-4.99123 0.04396,-2.344837 0.06335,-10.0421464 -0.04899,-12.9093249 1.224066,0.010774 2.085691,0.022982 3.413569,0.014665 0.101359,2.7651987 0.04034,10.9088575 0.07532,13.0474705 0.01,1.880903 -0.03399,3.246051 -0.0095,5.346668 0.01666,0.813598 -0.01997,2.138595 -0.01387,3.318048 0.972981,2.28e-4 1.312511,0.08771 2.732645,0.195945 -1.110615,1.762633 -1.628176,2.306992 -2.463034,3.418363 z"
       id="path584-3"
       sodipodi:nodetypes="cccccccccccccc" />
    <path
       style="fill:#000000;fill-rule:evenodd;stroke-width:1.62258"
       id="path10938"
       d="m 8.0270095,20.492526 c 0,0 -0.1339316,0.06891 0,0 1.1001011,-0.519838 1.5941138,-0.95846 2.6808105,-1.138545 1.363172,-0.26122 2.477987,-0.541069 3.754348,-0.79666 0.439215,-0.126323 0.874872,-0.258753 1.312225,-0.388271 0.388794,-0.120619 0.78349,-0.230037 1.138451,-0.405303 0.487976,-0.24795 2.947093,-1.55448 3.339377,-1.927684 0.829989,-0.529409 1.380041,-1.061607 2.023765,-1.555177 0.151186,-0.06065 0.316117,-0.09803 0.477532,-0.141193 0.07633,-0.02006 0.149988,-0.0446 0.227393,-0.06273 0.0077,-0.0017 0.01532,-0.0034 0.023,-0.0052 -0.108628,-1.842712 0.143696,-6.2900848 0.300574,-4.2548734 -0.0065,0.00572 0.0079,-0.00344 0,0 -0.794454,-0.079471 -0.959846,-0.048734 -1.788606,0.3272994 -0.931889,0.705939 -1.512283,0.951485 -2.480887,1.581746 -1.380651,0.734978 -1.824153,0.923717 -2.62717,1.377507 -1.128298,0.555585 -1.588943,0.776699 -2.451709,1.017574 -1.462877,0.496524 -2.022899,0.673449 -3.448229,0.948158 -0.5548403,0.09679 -1.8259282,0.403052 -2.3518498,0.358012 -0.4277555,1.705315 0.2989569,3.36119 -0.1290247,5.06534 z"
       sodipodi:nodetypes="cccccccccccccccccccc" />
    <rect
       style="font-variation-settings:normal;opacity:1;fill:none;fill-opacity:1;fill-rule:evenodd;stroke:#000000;stroke-width:0.79375;stroke-linecap:butt;stroke-linejoin:miter;stroke-miterlimit:4;stroke-dasharray:none;stroke-dashoffset:0;stroke-opacity:1;stop-color:#000000;stop-opacity:1"
       id="rect13979"
       width="6.4000001"
       height="6.4000001"
       x="12.217593"
       y="4.223927"
       ry="3.2" />
  </g>
</svg>
