<?xml version="1.0" encoding="UTF-8" standalone="no"?>
<!-- Created with Inkscape (http://www.inkscape.org/) -->

<svg
   width="120"
   height="120"
   viewBox="0 0 31.75 31.75"
   version="1.1"
   id="svg5"
   xmlns="http://www.w3.org/2000/svg"
   xmlns:svg="http://www.w3.org/2000/svg">
  <defs
     id="defs2" />
  <g
     id="layer1">
    <rect
       style="font-variation-settings:normal;opacity:1;vector-effect:none;fill:#d2e5cc;fill-opacity:1;fill-rule:evenodd;stroke:none;stop-color:#000000;stop-opacity:1"
       id="rect26154"
       width="32"
       height="32"
       x="0"
       y="0"
       ry="0.15345621" />
    <path
       style="fill:#989cd7;stroke:#000000;stroke-width:0.5px;stroke-linecap:butt;stroke-linejoin:miter;stroke-opacity:1"
       d="M 3.9030801,3.5226766 C 4.6247778,2.5321932 5.025759,1.7557771 6.177259,0.51487499 7.2533258,1.6959859 7.7337205,2.4754913 8.4297293,3.5171295 9.1463712,4.6711777 9.6475018,5.4517738 10.53702,7.0491156 c -1.2742869,0.056608 -1.6053451,0.032054 -2.8221511,0.082265 -0.00876,1.3369001 0.027585,4.8245382 0.073353,9.0363582 0.043147,3.970657 0.094667,8.584939 0.124659,12.647574 -1.2241174,8.36e-4 -2.0032061,0.0098 -3.330946,0.03073 0.00703,-2.268405 -0.028338,-10.688167 -0.083602,-12.826351 -0.041647,-2.729939 -0.049903,-5.929588 -0.08978,-8.9139751 -0.9729396,0.009 -1.4416789,0.062222 -2.7871574,0.055446 1.0938463,-1.7730865 1.4574048,-2.5192434 2.2816843,-3.638482 z"
       id="path584" />
    <path
       style="fill:#cd8282;stroke:#000000;stroke-width:0.5px;stroke-linecap:butt;stroke-linejoin:miter;stroke-opacity:1"
       d="m 24.681946,29.165098 c -1.500238,-0.399725 -3.175175,-2.780576 -4.438179,-5.521208 1.274767,-0.04452 1.716632,-0.01529 2.93386,-0.05396 -0.03911,-1.268863 -0.07182,-2.15723 -0.104265,-3.857009 -0.124659,-5.608856 -0.131878,-14.8282098 -0.167485,-17.9005549 1.224066,0.010774 2.216102,-0.00819 3.54398,-0.016509 -0.0174,2.6490715 -0.0877,8.0337485 -0.0475,10.6746154 -0.01462,2.39868 -0.04254,8.084113 -0.03096,11.068745 0.972981,2.28e-4 1.329581,0.05074 2.769538,0.07519 -0.922536,2.076459 -2.954931,5.069614 -4.458992,5.53069 z"
       id="path584-3" />
    <path
       style="fill:#000000;fill-rule:evenodd;stroke-width:1.62258"
       id="path10938"
       d="m 7.940109,19.484343 c 2.328349,-0.56462 5.762977,-1.694322 8.191693,-2.37438 2.260946,-0.96372 5.196374,-2.167591 6.849109,-3.033 0.0077,-0.0017 0.01532,-0.0034 0.023,-0.0052 -0.108628,-1.842712 -0.107386,-2.271391 -0.07725,-3.77165 -0.84922,0.716051 -4.759877,2.32971 -7.475075,3.242272 -2.25066,0.742239 -5.6759026,1.728626 -7.5402314,2.176062 0.03221,1.196936 0.020316,1.948031 0.028754,3.765896 z" />
    <rect
       style="font-variation-settings:normal;opacity:1;fill:none;fill-opacity:1;fill-rule:evenodd;stroke:#000000;stroke-width:0.79375;stroke-linecap:butt;stroke-linejoin:miter;stroke-miterlimit:4;stroke-dasharray:none;stroke-dashoffset:0;stroke-opacity:1;stop-color:#000000;stop-opacity:1"
       id="rect13979"
       width="6.4000001"
       height="6.4000001"
       x="12.217593"
       y="4.223927"
       ry="3.2" />
  </g>
</svg>
